<svg width="100%" height="100%" viewBox="0 0 512 512" version="1.1" xmlns="http://www.w3.org/2000/svg" xmlns:xlink="http://www.w3.org/1999/xlink" xml:space="preserve" style="fill-rule:evenodd;clip-rule:evenodd;stroke-linejoin:round;stroke-miterlimit:2;"><g><path d="M303,47l0,16l-32,0l0,16l-32,0l0,16l-32,0l0,16l-32,0l0,18l16,0l0,16l16,0l0,16l16,0l0,16l16,0l0,16l16,0l0,16l16,0l0,16l16,0l0,16l16,0l0,16l16,0l0,16l16,0l0,16l18,0l0,-16l32,0l0,-16l32,0l0,-16l32,0l0,-16l32,0l-0.2,-16.8l-0.3,-16.7l-15.4,-0.6l-0.6,-15.4l-15.4,-0.6l-0.6,-15.4l-15.4,-0.6l-0.6,-15.4l-15.4,-0.6l-0.6,-15.4l-15.4,-0.6l-0.6,-15.4l-15.4,-0.6l-0.6,-15.4l-15.4,-0.6l-0.6,-15.4l-15.4,-0.6l-0.6,-15.4l-15.4,-0.6l-0.6,-15.4l-16.7,-0.3l-16.8,-0.2Zm-16,82l0,14l-14,0l0,-14l14,0Zm32,0l0,14l-14,0l0,-14l14,0Zm-16,16l0,14l-14,0l0,-14l14,0Zm32,0l0,14l-14,0l0,-14l14,0Zm-16,16l0,14l-14,0l0,-14l14,0Zm32,0l0,14l-14,0l0,-14l14,0Zm-16,16l0,14l-14,0l0,-14l14,0Zm32,0l0,14l-14,0l0,-14l14,0Zm-16,16l0,14l-14,0l0,-14l14,0Zm16,16l0,14l-14,0l0,-14l14,0Zm-288,-50l0,16l-32,0l0,16l-16,0l0,18l16,0l0,16l16,0l0,16l16,0l0,16l16,0l0,16l16,0l0,16l16,0l0,16l16,0l0,16l16,0l0,16l16,0l0,16l50,0l0,-16l32,0l0,-16l16,0l0,-18l-16,0l0,-16l-16,0l0,-16l-16,0l0,-16l-16,0l0,-16l-16,0l0,-16l-16,0l0,-16l-16,0l0,-16l-16,0l0,-16l-16,0l0,-16l-50,0Zm64,82l0,14l-14,0l0,-14l14,0Zm16,16l0,14l-14,0l0,-14l14,0Zm16,16l0,14l-14,0l0,-14l14,0Zm16,16l0,14l-14,0l0,-14l14,0Z" style="fill:#654b17;fill-rule:nonzero;"/></g><g><path d="M47,255l0,18l16,0l0,14l-16,0l0,18l16,0l0,16l16,0l0,16l16,0l0,16l16,0l0,16l16,0l0,16l16,0l0,16l16,0l0,16l16,0l0,16l18,0l0,-16l32,0l0,-16l32,0l0,-16l32,0l0,-16l16,0l0,-18l-16,0l0,-14l16,0l0,-18l-18,0l0,15.9l-15.7,0.3l-15.8,0.3l-0.6,15.4l-31.4,0.6l-0.3,7.7l-0.3,7.8l-31.9,0l0,16l-14,0l0,-16l-16,0l0,-16l-16,0l0,-16l-16,0l0,-16l-16,0l0,-16l-16,0l0,-16l-16,0l0,-16l-16,0l0,-16l-18,0Zm32,34l0,14l-14,0l0,-14l14,0Zm16,16l0,14l-14,0l0,-14l14,0Zm16,16l0,14l-14,0l0,-14l14,0Zm16,16l0,14l-14,0l0,-14l14,0Zm16,16l0,14l-14,0l0,-14l14,0Zm144,0l0,14l-30,0l0,-14l30,0Zm-128,16l0,14l-14,0l0,-14l14,0Zm96,0l0,14l-30,0l0,-14l30,0Zm-80,16l0,14l-14,0l0,-14l14,0Zm48,0l0,14l-30,0l0,-14l30,0Zm-32,16l0,14l-14,0l0,-14l14,0Zm224.7,-145.3c-0.4,0.3 -0.7,3.9 -0.7,7.9l-0,7.3l-15.7,0.3l-15.8,0.3l-0.6,15.4l-31.4,0.6l-0.3,8.7l-0.3,8.8l32.1,0l-0,14l-32,0l-0,18l34,0l-0,-16l32,0l-0,-16l32,0l-0,-16l32,0l-0,-16l15,0l-0,-18l-17,0l-0,16l-30,0l-0,-16l-16.3,0c-9,0 -16.7,0.3 -17,0.7Zm31.3,17.3l-0,14l-30,0l-0,-14l30,0Zm-32,16l-0,14l-30,0l-0,-14l30,0Z" style="fill:#b7b7b7;fill-rule:nonzero;"/></g><g><path d="M480,206.9l0,17.1l-32,0l0,16l-32,0l0,16l-32,0l0,16l-31.9,0l-0.3,8.2l-0.3,8.3l33,0l-0.6,-16.6l32.6,0.6l-0.6,-16.6l16.5,0.3l16.6,0.3l0,-15.5l32,0l0,-15.9l7.8,-0.3l7.7,-0.3l0,-17l-8.2,-0.3l-8.3,-0.3Zm-0.2,80.6c-0.5,0.5 -0.8,4.1 -0.8,8.1l0,7.3l-15.7,0.3l-15.8,0.3l-0.6,15.4l-31.4,0.6l-0.6,15.4l-31.4,0.6l-0.3,7.7l-0.3,7.8l-31.9,0l0,34l16.8,-0.2l16.7,-0.3l0.3,-15.7l0.3,-15.8l31.7,-0.2l31.7,-0.3l0.3,-15.8l0.3,-15.7l62.9,0l0,-33l-3.8,0c-2.2,0 -9.2,-0.3 -15.8,-0.6c-6.5,-0.4 -12.2,-0.3 -12.6,0.1Zm-479.5,8.5c0,4.7 0.2,6.6 0.4,4.2c0.2,-2.3 0.2,-6.1 0,-8.5c-0.2,-2.3 -0.4,-0.4 -0.4,4.3Zm264,23.7l-8.3,0.4l0,15.9l-32,0l0,16l-17,0l0,15.9l8.8,0.3l8.7,0.3l-0.6,-16.6l32.6,0.6l-0.6,-16.6l32.6,0.6l0,-17.5l-8,0.2c-4.4,0.1 -11.7,0.4 -16.2,0.5Zm23.4,64c-0.4,0.3 -0.7,3.9 -0.7,7.9l0,7.3l-15.7,0.3l-15.8,0.3l-0.6,15.4l-31.4,0.6l-0.3,7.7l-0.3,7.8l-15.9,0l0,16l-16,0l0,18l16.8,-0.2l16.7,-0.3l0.6,-15.4l31.4,-0.6l0.6,-15.4l31.4,-0.6l0.3,-7.8l0.3,-7.7l15.9,0l0,-34l-8.3,0c-4.6,0 -8.7,0.3 -9,0.7Z" style="fill:#44250a;fill-rule:nonzero;"/></g><g><path d="M288,32l0,16l-32,0l0,16l-32,0l0,16l-32,0l0,16l-17,0l0,16.5l18,-0.6l0,-14.7l16,-0.7l16,-0.8l0,-14.5l16,-0.7l16,-0.8l0,-14.5l16,-0.7l16,-0.8l0,-14.4l11.3,-0.6c6.1,-0.4 16.7,-0.7 23.5,-0.7l12.2,-0l0,16l16,-0l0,16l16,0l0,16l16,0l0,16l16,0l0,16l16,0l0,16l16,0l0,16l16,0l0,16l16,0l0,16l16,0l0,16l16.1,0l-0.3,8.2l-0.3,8.3l8.3,-0.3l8.2,-0.3l0,-15.9l-16,0l0,-16l-16,0l0,-16l-16,0l0,-16l-16,0l0,-16l-16,0l0,-16l-16,0l0,-16l-16,0l0,-16l-16,0l0,-16l-16,0l0,-16l-16,0l0,-16l-16,0l0,-16l-48,0Zm-192,96l0,16l-32,0l0,16l-32,0l0,16l-32,0l0,113l17,0l0,-95.9l7.8,-0.3l7.7,-0.3l0.3,-7.7l0.3,-7.6l15.9,-0.7l16,-0.8l0,-14.5l16,-0.7l16,-0.8l0,-14.7l16,0l0,-17l-17,0Z" style="fill:#312104;fill-rule:nonzero;"/><path d="M31,222.9l0,66.2l8.8,-0.3l8.7,-0.3l0,-65l-8.7,-0.3l-8.8,-0.3Zm416.8,105.4l0.3,8.7l16.2,-0.2l16.2,-0.3l0.6,-16.4l-33.6,-0.6l0.3,8.8Zm-64,32l0.3,8.7l16.2,-0.2l16.2,-0.3l0.6,-16.4l-33.6,-0.6l0.3,8.8Z" style="fill:#312104;fill-rule:nonzero;"/></g><g><path d="M288,48l0,16l16,0l0,-16l-16,0Zm-32,16l0,16l16,0l0,-16l-16,0Zm-32,16l0,16l16,0l0,-16l-16,0Zm-32,16l0,16l16,0l0,-16l-16,0Zm-87.7,47.7l-8.3,0.4l0,15.9l17,0l0,-8.5c0,-4.7 -0.1,-8.4 -0.2,-8.3c-0.2,0.1 -4,0.4 -8.5,0.5Zm-40.3,16.3l0,16l16,0l0,-16l-16,0Zm-32,16l0,16l-16,0l0,17l15,0l0,15.5l17,-0.6l0,17.1l14.9,0l0.3,7.7l0.3,7.8l15.4,0.6l0.6,15.4l15.4,0.6l0.6,15.4l15.4,0.6l0.6,15.4l15.4,0.6l0.6,15.4l15.4,0.6l0.6,15.4l15.4,0.6l0.6,15.4l7.8,0.3l7.7,0.3l0,14.8l1.1,0.6c0.6,0.4 8,0.4 16.5,0l15.4,-0.7l0,-15.8l-32,-0l0,-16l-16,-0l0,-16l-16,-0l0,-16l-16,-0l0,-16l-16,-0l0,-16l-16,-0l0,-16l-16,-0l0,-16l-16,-0l0,-16l-16,-0l0,-16l-16,-0l0,-16l16,-0l0,-16l-16,-0Zm-0.8,128l0.3,16.5l15.4,0.6l0.6,15.4l15.4,0.6l0.6,15.4l15.4,0.6l0.6,15.4l15.4,0.6l0.6,15.4l15.4,0.6l0.6,15.4l15.4,0.6l0.6,15.4l15.4,0.6l0.6,15.4l15.4,0.6l0.6,15.4l15.4,0.6l0.6,15.4l17,0.6l-0.3,-8.6l-0.3,-8.5l16,-0l0.6,-17.2l-16.3,0.7l-16.4,0.7l0.4,-8.3l0.3,-8.4l-8.3,0.3l-8.4,0.4l0.4,-8.4l0.3,-8.3l-8.3,0.3l-8.4,0.4l0.4,-8.4l0.3,-8.3l-8.3,0.3l-8.4,0.4l0.4,-8.4l0.3,-8.3l-8.3,0.3l-8.4,0.4l0.4,-8.4l0.3,-8.3l-8.3,0.3l-8.4,0.4l0.4,-8.4l0.3,-8.3l-8.3,0.3l-8.4,0.4l0.4,-8.4l0.3,-8.3l-8.3,0.3l-8.4,0.4l0.4,-8.4l0.3,-8.3l-8.3,0.3l-8.4,0.4l0.4,-8.4l0.3,-8.3l-17.5,-0l0.2,16.5Z" style="fill:#522e10;fill-rule:nonzero;"/></g><g><path d="M479.7,239.7c-0.4,0.3 -0.7,3.9 -0.7,8l0,7.3l-31,-0l0,17l-32,0l0,16l-32,0l0,16.1l-33,-0.6l0,17l33,-0.6l0,16.2l-33,-0.6l0,17l33,-0.6l0,-15.9l32,0l0,-16l32,0l0,-16l32,0l0,-16l16,0l0,-16l-16,0l0,-16l16,0l0,-17l-7.8,0c-4.3,0 -8.2,0.3 -8.5,0.7Zm0.3,32.3l0,16l-32,0l0,16l-32,0l0,16l-32,0l0,-16l32,0l0,-16l32,0l0,-16l32,0Zm-183.7,63.7l-8.3,0.4l0,15.9l-32,0l0,16l-32,0l0,16.1l-16.2,-0.3l-16.3,-0.3l0,17l16.3,-0.3l16.2,-0.3l0,16.2l-16.2,-0.3l-16.3,-0.3l0.3,8.2l0.3,8.3l31.9,0l0,-16l32,0l0,-16l32,0l0,-16.1l17,0.6l0,-17l-17,0.6l0,-16.2l17,0.6l0,-8.8c0,-4.8 -0.1,-8.6 -0.2,-8.5c-0.2,0.1 -4,0.4 -8.5,0.5Zm-8.3,32.3l0,16l-32,0l0,16l-32,0l0,-16l32,0l0,-16l32,0Z" style="fill:#999;fill-rule:nonzero;"/></g><g><path d="M8.3,287.8l-8.3,0.3l0,15.9l16,0l0,16l16,0l0,16l16,0l0,16l16,0l0,16l16,0l0,16l16,0l0,16l16,0l0,16l16,0l0,16l16,0l0,16l16,0l0,16l16,0l0,16l48,0l0,-16l32,0l0,-16l32,0l0,-16l17,0l0,-16.5l-17,0.6l0,15.9l-32,0l0,16l-32,0l0,16l-48,0l0,-16l-16,0l0,-16l-16,0l0,-16l-16,0l0,-16l-16,0l0,-16l-16,0l0,-16l-16,0l0,-16l-16,0l0,-16l-16,0l0,-16l-16,0l0,-17l-14.9,0l-0.3,-7.8l-0.3,-7.7l-8.2,0.3Zm471.7,32.2l0,16l-32,0l0,16l-32,0l0,16l-32,0l0,16.1l-33,-0.6l0,17l33,-0.6l0,-15.9l32,0l0,-16l32,0l0,-16l32,0l0,-16l32,0l0,-16l-32,0Z" style="fill:#161005;fill-rule:nonzero;"/></g><g><path d="M159.7,111.7c-0.4,0.3 -0.7,3.9 -0.7,7.9l-0,7.3l-15.7,0.3l-15.8,0.3l-0,33l15.4,0.6l0.6,15.4l8.8,0.3l8.7,0.3l0,-16.1l16,-0l0,-16l15.5,-0l-0.6,-17l-15.9,-0l-0,-17l-7.8,-0c-4.3,-0 -8.2,0.3 -8.5,0.7Zm127.3,127.8l0,15.5l-16,-0l0,16l-16.1,0l0.3,8.7l0.3,8.8l15.4,0.6l0.6,15.4l8.8,0.3l8.7,0.3l0,-16.1l16,0l0,-16l15.5,0l-0.6,-17l-15.9,0l-0,-15.9l-17,-0.6Zm17,95.5l-0,50l17,0l-0,-16l16,0l-0,-34l-33,0Z" style="fill:#a42c2b;fill-rule:nonzero;"/></g><path d="M175.7,156.2c-0.4,6.6 -0.7,14.1 -0.7,16.5l-0,4.3l16,-0l-0,16l16,-0l-0,16l16,-0l-0,16l16,-0l-0,16l16,-0l-0,16l4.3,0c2.4,0 9.9,-0.3 16.5,-0.7l12.2,-0.6l0,-31.7l-16,-0l0,-16l-16,-0l0,-16l-16,-0l0,-16l-16,-0l0,-16l-16,-0l0,-16l-31.7,-0l-0.6,12.2Z" style="fill:#c51339;fill-rule:nonzero;"/><path d="M48,240l0,16l16,0l0,16l-16,0l0,16l16,0l0,16l16,0l0,16l16,0l0,16l16,0l0,16l16,0l0,16l16,0l0,16l16,0l0,16l16,0l0,16l16,0l0,-16l-16,0l0,-16l16,0l0,-16l-16,0l0,-16l-16,0l0,-16l-16,0l0,-16l-16,0l0,-16l-16,0l0,-16l-16,0l0,-16l-16,0l0,-16l-16,0l0,-16l-16,0Zm32,32l0,16l16,0l0,16l16,0l0,16l16,0l0,16l16,0l0,16l16,0l0,16l16,0l0,16l-16,0l0,-16l-16,0l0,-16l-16,0l0,-16l-16,0l0,-16l-16,0l0,-16l-16,0l0,-16l-16,0l0,-16l16,0Z" style="fill:#d6d6d6;fill-rule:nonzero;"/><g><path d="M272,128l0,16l16,0l0,16l16,0l0,16l16,0l0,16l16,0l0,16l16,0l0,16l16,0l0,-16l-16,0l0,-16l16,0l0,-16l-16,0l0,-16l-16,0l0,-16l-16,0l0,-16l-16,0l0,16l-16,0l0,-16l-16,0Zm48,16l0,16l16,0l0,16l16,0l0,16l-16,0l0,-16l-16,0l0,-16l-16,0l0,-16l16,0Zm-304,64l0,96l16,0l0,-96l-16,0Z" style="fill:#38280c;fill-rule:nonzero;"/></g><path d="M159.5,175.4c-0.4,8.5 -0.4,15.9 0,16.5l0.6,1.1l14.8,0l0.3,7.7l0.3,7.8l15.4,0.6l0.6,15.4l15.4,0.6l0.6,15.4l15.4,0.6l0.6,15.4l7.8,0.3l7.7,0.3l0,14.8l1.1,0.6c0.6,0.4 8,0.4 16.5,0l15.4,-0.7l0,-15.8l-16,-0l0,-16l-16,-0l0,-16l-16,-0l0,-16l-16,-0l0,-16l-16,-0l0,-16l-16,-0l0,-16l-15.8,-0l-0.7,15.4Z" style="fill:#9d1b37;fill-rule:nonzero;"/><path d="M112,143l0,17l16,0l0,16l16,0l0,16l16,0l0,16l16,0l0,16l16,0l0,16l16,0l0,16l16,0l0,16l16,0l0,16l16,0l0,16l16,0l0,16l17,0l0,-16.5l-17,0.6l0,-16.1l-16,0l0,-16l-16,0l0,-16l-16,0l0,-16l-16,0l0,-16l-16,0l0,-16l-16,0l0,-16l-16,0l0,-16l-16,0l0,-16l-16,0l0,-17l-16,0Z" style="fill:#543e13;fill-rule:nonzero;"/><path d="M335.7,343.5l0.6,24.5l-16.3,0l0,16l-16,0l0,33.1l8.3,-0.3l8.2,-0.3l0.3,-7.8l0.3,-7.7l30.9,0l0,-82l-17,0l0.7,24.5Z" style="fill:#892120;fill-rule:nonzero;"/><path d="M304,272l0,16l-16,0l0,31.7l12.2,0.6c6.6,0.4 14.1,0.7 16.5,0.7l4.3,0l0,-16l16,0l0,-4.3c0,-2.4 -0.3,-9.9 -0.7,-16.5l-0.6,-12.2l-31.7,0Z" style="fill:#d3a216;fill-rule:nonzero;"/><path d="M128,240l0,16l16,0l0,16l16,0l0,16l16,0l0,16l16,0l0,-16l-16,0l0,-16l-16,0l0,-16l-16,0l0,-16l-16,0Z" style="fill:#443310;fill-rule:nonzero;"/><path d="M160,96l0,16l-32,0l0,16l-16,0l0,16l16,0l0,-16l32,0l0,-16l16,0l0,-16l-16,0Z" style="fill:#6c1717;fill-rule:nonzero;"/><path d="M480,224l0,16l-32,0l0,16l32,0l0,-16l16,0l0,-16l-16,0Z" style="fill:#5b5b5b;fill-rule:nonzero;"/><path d="M320,400l0,16l-16,0l0,16l16,0l0,-16l32,0l0,-16l-32,0Z" style="fill:#611414;fill-rule:nonzero;"/><path d="M352,288l0,32l-16,0l0,16l-32,0l0,-16l16,0l0,-15.9l8.3,-0.4c2.153,-0.048 4.924,-0.141 7.7,-0.237l0,-15.463l16,0Z" style="fill:#d4961a;"/></svg>